<?xml version="1.0" standalone="no"?>
<!DOCTYPE svg PUBLIC "-//W3C//DTD SVG 20010904//EN"
 "http://www.w3.org/TR/2001/REC-SVG-20010904/DTD/svg10.dtd">
<svg version="1.0" xmlns="http://www.w3.org/2000/svg"
 width="606.000000pt" height="188.000000pt" viewBox="0 0 606.000000 188.000000"
 preserveAspectRatio="xMidYMid meet">

<g transform="translate(0.000000,188.000000) scale(0.100000,-0.100000)"
fill="#000000" stroke="none">
<path d="M5258 1797 c-75 -112 -206 -314 -242 -373 -185 -307 -217 -366 -300
-556 -25 -59 -46 -109 -46 -112 0 -5 -101 -246 -132 -316 -11 -25 -30 -83 -41
-129 -20 -82 -20 -84 -2 -97 10 -8 27 -12 37 -8 11 3 18 0 18 -8 1 -7 16 28
34 77 29 79 68 165 52 113 -3 -10 -1 -20 4 -23 6 -4 10 -12 10 -18 0 -7 -4 -6
-10 3 -5 8 -12 11 -16 7 -4 -3 -1 -13 6 -22 7 -9 10 -18 6 -22 -3 -3 -6 -1 -6
5 0 7 -4 12 -10 12 -5 0 -10 -7 -10 -15 0 -8 4 -15 9 -15 5 0 7 -9 4 -20 -3
-11 -13 -20 -22 -20 -12 0 -13 -2 -3 -8 10 -7 10 -15 2 -36 -12 -33 -13 -46
-2 -46 5 0 23 39 42 88 91 242 254 564 434 860 31 51 56 94 56 96 0 1 31 54
68 117 101 169 209 368 226 416 15 42 15 42 -15 68 -17 14 -34 25 -37 25 -19
0 -167 -255 -157 -270 4 -6 1 -9 -5 -8 -11 3 -160 -244 -160 -266 0 -6 -4 -6
-12 2 -12 12 19 68 209 373 105 170 133 224 96 184 -27 -29 -47 -31 -33 -4 7
11 10 23 8 25 -3 2 -29 -33 -60 -79z m-237 -460 c-10 -9 -11 -8 -5 6 3 10 9
15 12 12 3 -3 0 -11 -7 -18z m-21 -77 c0 -5 -7 -6 -17 -3 -9 4 -14 2 -10 -3 3
-6 -3 -16 -15 -23 -21 -13 -19 -5 5 27 11 14 37 16 37 2z m-20 -44 c0 -3 -4
-8 -10 -11 -5 -3 -10 -1 -10 4 0 6 5 11 10 11 6 0 10 -2 10 -4z m-30 -46 c-6
-11 -12 -20 -14 -20 -2 0 -2 9 1 20 3 11 9 20 15 20 5 0 4 -9 -2 -20z m-60
-50 c-6 -11 -13 -20 -16 -20 -2 0 0 9 6 20 6 11 13 20 16 20 2 0 0 -9 -6 -20z
m28 -2 c-8 -13 -34 -58 -57 -100 -45 -83 -66 -107 -30 -35 30 60 89 157 96
157 3 0 -1 -10 -9 -22z m-128 -386 c0 -5 -7 -17 -15 -28 -14 -18 -14 -17 -4 9
12 27 19 34 19 19z m-57 -117 c-3 -9 -8 -14 -10 -11 -3 3 -2 9 2 15 9 16 15
13 8 -4z m-48 -111 c-8 -20 -15 -39 -15 -42 0 -3 -2 -3 -5 0 -6 5 22 78 30 78
3 0 -2 -16 -10 -36z m-34 -81 c-12 -20 -14 -14 -5 12 4 9 9 14 11 11 3 -2 0
-13 -6 -23z"/>
<path d="M4203 1700 c-84 -38 -267 -174 -354 -264 -114 -116 -230 -304 -288
-462 -43 -117 -77 -299 -72 -379 0 -11 1 -30 1 -43 0 -12 13 -51 29 -85 21
-48 45 -77 102 -128 91 -81 94 -83 197 -103 124 -25 215 -3 353 86 108 70 220
198 289 332 82 158 161 403 147 457 -3 10 -1 16 4 13 6 -3 9 29 7 80 -1 47 -6
86 -11 86 -5 0 -7 9 -4 19 6 25 -48 140 -76 164 -12 9 -38 25 -57 34 -19 9
-37 20 -40 24 -3 4 -51 7 -108 6 -56 -1 -102 -1 -102 1 0 16 110 82 136 82 19
0 17 10 -4 43 -40 60 -78 70 -149 37z m247 -270 c11 -8 7 -9 -15 -4 -37 8 -45
14 -19 14 10 0 26 -5 34 -10z m15 -40 l28 -11 -6 -87 c-18 -285 -232 -660
-467 -817 -119 -80 -253 -120 -294 -86 -24 20 -36 77 -36 176 1 204 96 474
237 671 40 55 51 64 70 59 17 -4 30 1 46 19 14 14 53 34 93 46 38 12 78 25 89
30 31 12 208 12 240 0z m142 -237 c-3 -10 -5 -4 -5 12 0 17 2 24 5 18 2 -7 2
-21 0 -30z m-20 -125 c-3 -8 -6 -5 -6 6 -1 11 2 17 5 13 3 -3 4 -12 1 -19z
m-931 -109 c-14 -35 -25 -59 -26 -54 0 16 45 136 48 127 1 -5 -9 -37 -22 -73z
m643 -281 c-37 -48 -159 -179 -159 -171 0 3 33 42 73 87 41 44 82 94 92 109
10 15 20 25 23 23 2 -3 -10 -24 -29 -48z m-29 17 c0 -8 -7 -15 -16 -15 -14 0
-14 3 -4 15 7 8 14 15 16 15 2 0 4 -7 4 -15z m-30 -39 c0 -2 -7 -6 -15 -10 -8
-3 -15 -1 -15 4 0 6 7 10 15 10 8 0 15 -2 15 -4z m-652 -191 c-3 -3 -9 2 -12
12 -6 14 -5 15 5 6 7 -7 10 -15 7 -18z m527 15 c-3 -5 -16 -15 -28 -21 -19 -9
-19 -8 3 10 28 23 34 26 25 11z m-288 -86 c-3 -3 -12 -4 -19 -1 -8 3 -5 6 6 6
11 1 17 -2 13 -5z"/>
<path d="M1402 1595 c-18 -8 -36 -14 -40 -13 -4 1 -26 -4 -50 -11 -23 -6 -48
-9 -54 -5 -7 4 -8 3 -4 -4 4 -7 -7 -13 -29 -18 -19 -3 -35 -10 -35 -14 0 -4
-19 -15 -42 -24 -24 -10 -63 -27 -88 -39 -25 -11 -47 -21 -50 -21 -16 -2 -91
-84 -111 -120 -20 -39 -21 -47 -10 -75 8 -17 27 -39 45 -50 39 -24 96 -37 96
-22 0 6 -4 11 -10 11 -5 0 -10 12 -10 26 0 39 108 141 198 188 41 21 76 36 78
33 3 -2 -16 -40 -42 -83 -38 -65 -109 -206 -155 -309 -17 -39 -89 -262 -114
-355 -14 -53 -28 -138 -32 -191 -6 -96 -5 -97 20 -114 14 -9 32 -18 39 -19 7
-1 19 -5 26 -9 6 -5 17 -5 22 -2 6 3 13 0 16 -9 5 -12 9 -11 25 5 19 19 26 49
10 49 -4 0 -6 12 -3 28 l6 27 6 -24 c4 -19 13 -3 42 80 132 383 196 537 346
837 l66 132 36 0 c45 0 196 -34 245 -55 99 -41 158 -126 158 -225 -1 -61 -37
-168 -59 -177 -8 -3 -14 -11 -14 -17 0 -27 -292 -332 -308 -322 -10 6 -41 -23
-40 -37 0 -5 -4 -12 -8 -15 -4 -4 -4 -1 0 6 12 21 0 14 -91 -54 -291 -218
-657 -418 -700 -383 -8 8 -10 17 -3 28 5 9 5 22 2 28 -13 21 -44 7 -61 -26 -9
-17 -20 -29 -24 -25 -3 4 -1 16 4 27 18 33 22 77 7 78 -7 1 -23 3 -36 4 -35 4
-66 -55 -64 -123 2 -64 11 -78 77 -109 28 -13 65 -33 84 -45 92 -58 322 -15
533 100 75 41 243 149 269 173 8 8 37 32 64 53 89 71 337 327 331 343 -3 8 -2
11 4 8 12 -7 109 114 110 138 0 9 4 17 9 17 7 0 19 25 25 52 0 3 4 10 9 14 4
4 7 14 7 23 0 9 -16 -13 -35 -49 -19 -36 -39 -64 -44 -63 -6 2 -7 -5 -4 -14 4
-9 2 -14 -3 -11 -5 3 -15 0 -22 -8 -10 -11 -10 -14 0 -14 7 0 2 -6 -12 -13
-15 -8 -25 -21 -24 -35 0 -11 -4 -19 -8 -15 -10 5 -59 -36 -55 -46 1 -3 -40
-46 -93 -96 l-95 -90 83 85 c45 47 82 88 82 92 0 4 12 20 26 35 78 85 160 212
182 283 32 99 19 250 -28 326 -21 33 -99 112 -138 140 -23 16 -23 16 -11 -4 7
-11 16 -19 20 -16 10 6 23 -15 15 -23 -8 -9 -56 37 -56 53 0 37 -192 109 -318
119 -37 3 -87 8 -112 10 -26 2 -59 -2 -78 -10z m383 -55 c54 -18 130 -59 112
-60 -4 0 -27 10 -50 22 -23 12 -67 29 -97 39 -30 9 -48 18 -39 18 9 1 42 -8
74 -19z m229 -153 c33 -43 34 -62 2 -22 -13 17 -29 31 -35 31 -21 3 -22 4 -16
14 11 17 23 11 49 -23z m49 -82 c4 -10 0 -10 -19 -1 -13 6 -24 14 -24 18 0 11
38 -3 43 -17z m-759 -80 c-4 -8 -8 -15 -10 -15 -2 0 -4 7 -4 15 0 8 4 15 10
15 5 0 7 -7 4 -15z m776 -55 c0 -22 -3 -40 -8 -40 -4 0 -6 18 -4 40 2 22 6 40
8 40 2 0 4 -18 4 -40z m-953 -132 c-3 -8 -6 -5 -6 6 -1 11 2 17 5 13 3 -3 4
-12 1 -19z m-64 -171 c-14 -42 -29 -77 -33 -77 -7 0 5 39 45 149 3 8 7 12 10
10 2 -2 -8 -39 -22 -82z m-42 -118 c-5 -13 -10 -19 -10 -12 -1 15 10 45 15 40
3 -2 0 -15 -5 -28z m-331 -626 c0 -11 -4 -11 -20 -3 -11 6 -20 15 -20 19 0 5
9 7 20 4 11 -3 20 -12 20 -20z m117 -39 c-3 -3 -12 -4 -19 -1 -8 3 -5 6 6 6
11 1 17 -2 13 -5z"/>
<path d="M2742 1595 c-18 -8 -36 -14 -40 -13 -4 1 -26 -4 -50 -11 -23 -6 -48
-9 -54 -5 -7 4 -8 3 -4 -4 4 -7 -7 -13 -29 -18 -19 -3 -35 -10 -35 -14 0 -4
-19 -15 -42 -24 -24 -10 -63 -27 -88 -39 -25 -11 -47 -21 -50 -21 -16 -2 -91
-84 -111 -120 -20 -39 -21 -47 -10 -75 8 -17 27 -39 45 -50 39 -24 96 -37 96
-22 0 6 -4 11 -10 11 -5 0 -10 12 -10 26 0 39 108 141 198 188 41 21 76 36 78
33 3 -2 -16 -40 -42 -83 -38 -65 -109 -206 -155 -309 -17 -39 -89 -262 -114
-355 -14 -53 -28 -138 -32 -191 -6 -96 -5 -97 20 -114 14 -9 32 -18 39 -19 7
-1 19 -5 26 -9 6 -5 17 -5 22 -2 6 3 13 0 16 -9 5 -12 9 -11 25 5 19 19 26 49
10 49 -4 0 -6 12 -3 28 l6 27 6 -24 c4 -19 13 -3 42 80 132 383 196 537 346
837 l66 132 36 0 c45 0 196 -34 245 -55 99 -41 158 -126 158 -225 -1 -61 -37
-168 -59 -177 -8 -3 -14 -11 -14 -17 0 -27 -292 -332 -308 -322 -10 6 -41 -23
-40 -37 0 -5 -4 -12 -8 -15 -4 -4 -4 -1 0 6 12 21 0 14 -91 -54 -291 -218
-657 -418 -700 -383 -8 8 -10 17 -3 28 5 9 5 22 2 28 -13 21 -44 7 -61 -26 -9
-17 -20 -29 -24 -25 -3 4 -1 16 4 27 18 33 22 77 7 78 -7 1 -23 3 -36 4 -35 4
-66 -55 -64 -123 2 -64 11 -78 77 -109 28 -13 65 -33 84 -45 92 -58 322 -15
533 100 75 41 243 149 269 173 8 8 37 32 64 53 89 71 337 327 331 343 -3 8 -2
11 4 8 12 -7 109 114 110 138 0 9 4 17 9 17 7 0 19 25 25 52 0 3 4 10 9 14 4
4 7 14 7 23 0 9 -16 -13 -35 -49 -19 -36 -39 -64 -44 -63 -6 2 -7 -5 -4 -14 4
-9 2 -14 -3 -11 -5 3 -15 0 -22 -8 -10 -11 -10 -14 0 -14 7 0 2 -6 -12 -13
-15 -8 -25 -21 -24 -35 0 -11 -4 -19 -8 -15 -10 5 -59 -36 -55 -46 1 -3 -40
-46 -93 -96 l-95 -90 83 85 c45 47 82 88 82 92 0 4 12 20 26 35 78 85 160 212
182 283 32 99 19 250 -28 326 -21 33 -99 112 -138 140 -23 16 -23 16 -11 -4 7
-11 16 -19 20 -16 10 6 23 -15 15 -23 -8 -9 -56 37 -56 53 0 37 -192 109 -318
119 -37 3 -87 8 -112 10 -26 2 -59 -2 -78 -10z m383 -55 c54 -18 130 -59 112
-60 -4 0 -27 10 -50 22 -23 12 -67 29 -97 39 -30 9 -48 18 -39 18 9 1 42 -8
74 -19z m229 -153 c33 -43 34 -62 2 -22 -13 17 -29 31 -35 31 -21 3 -22 4 -16
14 11 17 23 11 49 -23z m49 -82 c4 -10 0 -10 -19 -1 -13 6 -24 14 -24 18 0 11
38 -3 43 -17z m-759 -80 c-4 -8 -8 -15 -10 -15 -2 0 -4 7 -4 15 0 8 4 15 10
15 5 0 7 -7 4 -15z m776 -55 c0 -22 -3 -40 -8 -40 -4 0 -6 18 -4 40 2 22 6 40
8 40 2 0 4 -18 4 -40z m-953 -132 c-3 -8 -6 -5 -6 6 -1 11 2 17 5 13 3 -3 4
-12 1 -19z m-64 -171 c-14 -42 -29 -77 -33 -77 -7 0 5 39 45 149 3 8 7 12 10
10 2 -2 -8 -39 -22 -82z m-42 -118 c-5 -13 -10 -19 -10 -12 -1 15 10 45 15 40
3 -2 0 -15 -5 -28z m-331 -626 c0 -11 -4 -11 -20 -3 -11 6 -20 15 -20 19 0 5
9 7 20 4 11 -3 20 -12 20 -20z m117 -39 c-3 -3 -12 -4 -19 -1 -8 3 -5 6 6 6
11 1 17 -2 13 -5z"/>
<path d="M520 1359 c-102 -56 -154 -96 -302 -238 -138 -133 -168 -172 -168
-221 0 -23 -5 -33 -20 -37 -30 -8 -24 -32 13 -47 17 -8 48 -21 67 -30 l35 -16
-39 6 c-36 5 -38 4 -27 -10 23 -27 110 -45 211 -44 96 1 195 -18 334 -64 57
-19 91 -18 45 1 -90 37 -168 64 -250 86 -82 22 -87 25 -39 20 30 -4 124 -29
208 -56 85 -28 157 -48 160 -44 6 6 -8 18 -33 29 -6 3 -4 9 5 15 11 8 3 15
-40 36 -30 15 -44 24 -31 21 29 -6 15 9 -18 19 -15 5 -21 4 -17 -3 4 -6 -13
-4 -39 4 -25 9 -45 20 -45 26 0 15 -93 53 -98 39 -2 -6 -8 -11 -13 -11 -6 0
-8 4 -4 9 5 9 -87 41 -119 41 -9 0 -16 4 -16 9 0 9 120 100 265 199 133 91
173 128 158 143 -10 10 -17 9 -35 -7 -13 -12 -60 -47 -106 -79 -46 -31 -86
-64 -89 -71 -3 -8 -8 -12 -12 -9 -8 5 -104 -68 -173 -132 -45 -41 -68 -53 -68
-34 0 17 278 241 299 241 6 0 11 4 11 9 0 5 14 14 30 21 17 7 30 16 30 20 0 5
23 25 51 45 44 33 50 41 47 69 -3 29 -5 31 -38 28 -32 -3 -33 -2 -15 12 16 12
17 16 6 30 -20 24 -38 20 -121 -25z m-10 -184 c-7 -8 -17 -15 -23 -15 -6 0 -2
7 9 15 25 19 30 19 14 0z"/>
<path d="M5280 1297 c3 -3 82 -26 175 -51 273 -74 416 -119 407 -128 -4 -4
-42 3 -83 17 -109 38 -191 57 -198 48 -9 -12 -31 -15 -31 -4 0 5 5 11 12 13
17 6 -255 75 -275 70 -10 -3 -15 -8 -10 -11 5 -3 9 -15 8 -27 0 -28 63 -80
132 -108 32 -13 118 -38 191 -57 l132 -33 -79 -81 c-148 -150 -273 -335 -241
-355 7 -4 10 -12 6 -18 -10 -17 5 -42 26 -42 16 0 18 4 12 22 -6 20 -5 21 9
10 14 -12 19 -8 38 30 24 48 254 282 340 346 66 49 97 56 42 10 -84 -71 -138
-123 -135 -131 1 -5 -2 -6 -7 -3 -12 8 -183 -177 -233 -250 -40 -59 -44 -105
-5 -57 12 14 45 49 72 77 28 28 44 46 36 42 -10 -6 -12 -5 -7 2 4 7 11 12 17
12 5 0 22 11 37 24 63 55 223 186 300 246 80 61 83 65 79 99 -2 22 -9 35 -16
33 -7 -1 -10 2 -6 7 3 6 -1 24 -10 41 -12 23 -22 30 -46 30 -24 0 -30 4 -25
15 5 13 0 15 -27 10 -23 -5 -59 3 -122 25 -104 36 -355 101 -366 94 -4 -2 -9
0 -11 6 -1 5 -19 11 -38 14 -19 3 -51 8 -70 12 -19 4 -33 4 -30 1z"/>
<path d="M546 811 c5 -5 20 -12 34 -15 l25 -7 -25 15 c-28 17 -50 21 -34 7z"/>
</g>
</svg>
