<svg width="44" height="44" viewBox="0 0 44 44" fill="none" xmlns="http://www.w3.org/2000/svg">
<rect width="44" height="43.4079" rx="21.704" fill="white"/>
<path fill-rule="evenodd" clip-rule="evenodd" d="M22 10C15.37 10 10 15.37 10 22C10 27.31 13.435 31.795 18.205 33.385C18.805 33.49 19.03 33.13 19.03 32.815C19.03 32.53 19.015 31.585 19.015 30.58C16 31.135 15.22 29.845 14.98 29.17C14.845 28.825 14.26 27.76 13.75 27.475C13.33 27.25 12.73 26.695 13.735 26.68C14.68 26.665 15.355 27.55 15.58 27.91C16.66 29.725 18.385 29.215 19.075 28.9C19.18 28.12 19.495 27.595 19.84 27.295C17.17 26.995 14.38 25.96 14.38 21.37C14.38 20.065 14.845 18.985 15.61 18.145C15.49 17.845 15.07 16.615 15.73 14.965C15.73 14.965 16.735 14.65 19.03 16.195C19.99 15.925 21.01 15.79 22.03 15.79C23.05 15.79 24.07 15.925 25.03 16.195C27.325 14.635 28.33 14.965 28.33 14.965C28.99 16.615 28.57 17.845 28.45 18.145C29.215 18.985 29.68 20.05 29.68 21.37C29.68 25.975 26.875 26.995 24.205 27.295C24.64 27.67 25.015 28.39 25.015 29.515C25.015 31.12 25 32.41 25 32.815C25 33.13 25.225 33.505 25.825 33.385C28.2072 32.5807 30.2772 31.0497 31.7437 29.0074C33.2101 26.965 33.9993 24.5143 34 22C34 15.37 28.63 10 22 10Z" fill="#3A3A3A"/>
</svg>
