<svg width="42" height="42" viewBox="0 0 42 42" fill="none" xmlns="http://www.w3.org/2000/svg">
<rect width="42" height="42" rx="21" fill="white"/>
<path fill-rule="evenodd" clip-rule="evenodd" d="M16.465 10.066C17.638 10.012 18.012 10 21 10C23.988 10 24.362 10.013 25.534 10.066C26.706 10.119 27.506 10.306 28.206 10.577C28.939 10.854 29.604 11.287 30.154 11.847C30.714 12.396 31.146 13.06 31.422 13.794C31.694 14.494 31.88 15.294 31.934 16.464C31.988 17.639 32 18.013 32 21C32 23.988 31.987 24.362 31.934 25.535C31.881 26.705 31.694 27.505 31.422 28.205C31.146 28.9391 30.7133 29.6042 30.154 30.154C29.604 30.714 28.939 31.146 28.206 31.422C27.506 31.694 26.706 31.88 25.536 31.934C24.362 31.988 23.988 32 21 32C18.012 32 17.638 31.987 16.465 31.934C15.295 31.881 14.495 31.694 13.795 31.422C13.0609 31.146 12.3958 30.7133 11.846 30.154C11.2864 29.6047 10.8533 28.9399 10.577 28.206C10.306 27.506 10.12 26.706 10.066 25.536C10.012 24.361 10 23.987 10 21C10 18.012 10.013 17.638 10.066 16.466C10.119 15.294 10.306 14.494 10.577 13.794C10.8537 13.0601 11.2871 12.3953 11.847 11.846C12.396 11.2865 13.0605 10.8534 13.794 10.577C14.494 10.306 15.294 10.12 16.464 10.066H16.465ZM25.445 12.046C24.285 11.993 23.937 11.982 21 11.982C18.063 11.982 17.715 11.993 16.555 12.046C15.482 12.095 14.9 12.274 14.512 12.425C13.999 12.625 13.632 12.862 13.247 13.247C12.882 13.6021 12.6012 14.0343 12.425 14.512C12.274 14.9 12.095 15.482 12.046 16.555C11.993 17.715 11.982 18.063 11.982 21C11.982 23.937 11.993 24.285 12.046 25.445C12.095 26.518 12.274 27.1 12.425 27.488C12.601 27.965 12.882 28.398 13.247 28.753C13.602 29.118 14.035 29.399 14.512 29.575C14.9 29.726 15.482 29.905 16.555 29.954C17.715 30.007 18.062 30.018 21 30.018C23.938 30.018 24.285 30.007 25.445 29.954C26.518 29.905 27.1 29.726 27.488 29.575C28.001 29.375 28.368 29.138 28.753 28.753C29.118 28.398 29.399 27.965 29.575 27.488C29.726 27.1 29.905 26.518 29.954 25.445C30.007 24.285 30.018 23.937 30.018 21C30.018 18.063 30.007 17.715 29.954 16.555C29.905 15.482 29.726 14.9 29.575 14.512C29.375 13.999 29.138 13.632 28.753 13.247C28.3979 12.8821 27.9657 12.6012 27.488 12.425C27.1 12.274 26.518 12.095 25.445 12.046ZM19.595 24.391C20.3797 24.7176 21.2534 24.7617 22.0669 24.5157C22.8805 24.2697 23.5834 23.7489 24.0556 23.0422C24.5278 22.3356 24.7401 21.4869 24.656 20.6411C24.572 19.7953 24.197 19.005 23.595 18.405C23.2112 18.0215 22.7472 17.7278 22.2363 17.5451C21.7255 17.3625 21.1804 17.2954 20.6405 17.3486C20.1006 17.4019 19.5792 17.5742 19.1138 17.8531C18.6485 18.1321 18.2507 18.5107 17.9493 18.9619C17.6479 19.413 17.4502 19.9253 17.3705 20.462C17.2908 20.9986 17.3312 21.5463 17.4885 22.0655C17.6459 22.5847 17.9165 23.0626 18.2807 23.4647C18.645 23.8668 19.0938 24.1832 19.595 24.391ZM17.002 17.002C17.527 16.477 18.1503 16.0605 18.8363 15.7764C19.5223 15.4922 20.2575 15.346 21 15.346C21.7425 15.346 22.4777 15.4922 23.1637 15.7764C23.8497 16.0605 24.473 16.477 24.998 17.002C25.523 17.527 25.9395 18.1503 26.2236 18.8363C26.5078 19.5223 26.654 20.2575 26.654 21C26.654 21.7425 26.5078 22.4777 26.2236 23.1637C25.9395 23.8497 25.523 24.473 24.998 24.998C23.9377 26.0583 22.4995 26.654 21 26.654C19.5005 26.654 18.0623 26.0583 17.002 24.998C15.9417 23.9377 15.346 22.4995 15.346 21C15.346 19.5005 15.9417 18.0623 17.002 17.002ZM27.908 16.188C28.0381 16.0653 28.1423 15.9177 28.2143 15.754C28.2863 15.5903 28.3248 15.4138 28.3274 15.2349C28.33 15.0561 28.2967 14.8785 28.2295 14.7128C28.1622 14.5471 28.0624 14.3965 27.936 14.27C27.8095 14.1436 27.6589 14.0438 27.4932 13.9765C27.3275 13.9093 27.1499 13.876 26.9711 13.8786C26.7922 13.8812 26.6157 13.9197 26.452 13.9917C26.2883 14.0637 26.1407 14.1679 26.018 14.298C25.7793 14.551 25.6486 14.8871 25.6537 15.2349C25.6588 15.5827 25.7992 15.9149 26.0452 16.1608C26.2911 16.4068 26.6233 16.5472 26.9711 16.5523C27.3189 16.5574 27.655 16.4267 27.908 16.188Z" fill="#3A3A3A"/>
</svg>
