<?xml version="1.0" encoding="UTF-8" standalone="no"?>
<!-- Created with Inkscape (http://www.inkscape.org/) -->

<svg
   version="1.1"
   id="svg2"
   xml:space="preserve"
   width="237.8"
   height="239.65334"
   viewBox="0 0 237.8 239.65334"
   sodipodi:docname="whatsapp-seeklogo.com.eps"
   xmlns:inkscape="http://www.inkscape.org/namespaces/inkscape"
   xmlns:sodipodi="http://sodipodi.sourceforge.net/DTD/sodipodi-0.dtd"
   xmlns="http://www.w3.org/2000/svg"
   xmlns:svg="http://www.w3.org/2000/svg"><defs
     id="defs6" /><sodipodi:namedview
     id="namedview4"
     pagecolor="#ffffff"
     bordercolor="#666666"
     borderopacity="1.0"
     inkscape:pageshadow="2"
     inkscape:pageopacity="0.0"
     inkscape:pagecheckerboard="0" /><g
     id="g8"
     inkscape:groupmode="layer"
     inkscape:label="ink_ext_XXXXXX"
     transform="matrix(1.3333333,0,0,-1.3333333,0,239.65333)"><g
       id="g10"
       transform="scale(0.1)"><path
         d="m 1318.44,722.898 c -21.95,12.024 -129.75,70.204 -149.98,78.426 -20.21,8.203 -34.96,12.481 -50.72,-9.336 -15.74,-21.758 -60.47,-70.5 -74.02,-84.929 -13.62,-14.438 -26.71,-15.778 -48.677,-3.727 -21.895,11.977 -93.039,38.297 -175.555,117.613 -64.207,61.727 -106.312,136.571 -118.531,159.414 -12.223,22.871 -0.09,34.521 11.52,45.221 10.421,9.66 23.339,25.3 35.003,37.91 11.629,12.62 15.739,21.79 23.743,36.43 7.996,14.64 4.777,27.83 -0.407,39.22 -5.179,11.36 -45.753,123.04 -62.703,168.47 -16.941,45.43 -35.824,38.67 -48.871,39.18 -13.035,0.45 -27.863,2.91 -42.773,3.45 -14.899,0.57 -39.336,-4.13 -60.641,-25.71 -21.316,-21.59 -81.082,-73.49 -85.199,-183.49 -4.113,-109.93 71.973,-219.208 82.586,-234.509 10.617,-15.343 145.297,-253.711 369.113,-351.742 223.872,-98 225.042,-68.117 266.112,-65.918 41.1,2.16 134.25,49.141 154.85,100.59 20.58,51.469 22.23,96.211 17,105.738 -5.25,9.52 -19.91,15.711 -41.85,27.699 z M 907.914,192.98 c -148.016,0 -285.879,44.399 -400.984,120.5 l -280.094,-89.66 91.039,270.66 c -87.25,120.192 -138.797,267.821 -138.797,427.352 0,401.928 326.969,728.908 728.836,728.908 401.936,0 728.886,-326.98 728.886,-728.908 0,-401.891 -326.95,-728.852 -728.886,-728.852 z m 0,1604.41 c -483.519,0 -875.5117,-391.98 -875.5117,-875.558 0,-165.41 45.9024,-320.121 125.6247,-452.102 L 0,0 484.742,155.18 C 610.188,85.8398 754.43,46.2813 907.914,46.2813 c 483.596,0 875.566,392.0277 875.566,875.5507 0,483.578 -391.97,875.558 -875.566,875.558"
         style="fill:#211c1d;fill-opacity:1;fill-rule:evenodd;stroke:none"
         id="path12" /></g></g></svg>
